<svg width="30" height="25" viewBox="0 0 30 25" fill="none" xmlns="http://www.w3.org/2000/svg">
<g clip-path="url(#clip0_6_4770)">
<path d="M24.1363 12.781C25.8433 12.8912 27.1923 13.4692 28.1835 14.5154C29.1746 15.5066 29.6702 16.8006 29.6702 18.3974C29.6702 20.2696 29.092 21.7013 27.9357 22.6924C26.7793 23.6835 25.4578 24.1791 23.9711 24.1791C23.8059 24.1791 23.6407 24.1791 23.4755 24.1791C22.3192 24.1791 21.328 23.9314 20.5021 23.4359C19.7312 22.9403 19.0704 22.3345 18.5198 21.6187C18.0242 20.8478 17.6663 19.9944 17.4461 19.0583C17.2258 18.0672 17.1157 17.076 17.1157 16.0849C17.1157 14.5981 17.391 13.0839 17.9416 11.5421C18.4923 10.0003 19.2356 8.56862 20.1717 7.2471C21.1628 5.8705 22.2641 4.68663 23.4755 3.69549C24.742 2.64928 26.091 1.87839 27.5227 1.38281L29.918 4.68663C28.5414 5.62272 27.33 6.80659 26.2838 8.23824C25.2376 9.61483 24.5217 11.1291 24.1363 12.781ZM7.20421 12.781C8.91118 12.8912 10.2602 13.4692 11.2514 14.5154C12.2425 15.5066 12.7381 16.8006 12.7381 18.3974C12.7381 20.2696 12.1599 21.7013 11.0036 22.6924C9.84727 23.6835 8.49821 24.1791 6.95642 24.1791C6.79123 24.1791 6.62604 24.1791 6.46085 24.1791C5.30451 24.1791 4.31337 23.9314 3.48741 23.4359C2.71652 22.9403 2.08329 22.3345 1.58772 21.6187C1.09214 20.8478 0.73423 19.9944 0.513976 19.0583C0.293721 18.0672 0.183594 17.076 0.183594 16.0849C0.183594 14.5981 0.458912 13.0839 1.00955 11.5421C1.56019 10.0003 2.30354 8.56862 3.23963 7.2471C4.23077 5.8705 5.33205 4.68663 6.54345 3.69549C7.80991 2.64928 9.15897 1.87839 10.5906 1.38281L12.9859 4.68663C11.6093 5.62272 10.3979 6.80659 9.35169 8.23824C8.30548 9.61483 7.58966 11.1291 7.20421 12.781Z" fill="url(#paint0_linear_6_4770)"/>
</g>
<defs>
<linearGradient id="paint0_linear_6_4770" x1="0.183594" y1="12.7817" x2="29.9152" y2="12.7817" gradientUnits="userSpaceOnUse">
<stop stop-color="#CBFE47"/>
<stop offset="1" stop-color="#9BDC23"/>
</linearGradient>
<clipPath id="clip0_6_4770">
<rect width="30" height="24" fill="white" transform="translate(0 0.78125)"/>
</clipPath>
</defs>
</svg>
